<mxfile host="app.diagrams.net" agent="Mozilla/5.0 (Macintosh; Intel Mac OS X 10_15_7) AppleWebKit/537.36 (KHTML, like Gecko) Chrome/128.0.0.0 Safari/537.36" version="24.8.6">
  <diagram id="C5RBs43oDa-KdzZeNtuy" name="Page-1">
    <mxGraphModel dx="1332" dy="898" grid="1" gridSize="10" guides="1" tooltips="1" connect="1" arrows="1" fold="1" page="1" pageScale="1" pageWidth="827" pageHeight="1169" math="0" shadow="0">
      <root>
        <mxCell id="WIyWlLk6GJQsqaUBKTNV-0" />
        <mxCell id="WIyWlLk6GJQsqaUBKTNV-1" style="locked=1;" parent="WIyWlLk6GJQsqaUBKTNV-0" />
        <mxCell id="0k58HP3hY6ir9fIUcR2I-8" value="" style="edgeStyle=orthogonalEdgeStyle;rounded=0;orthogonalLoop=1;jettySize=auto;html=1;" edge="1" parent="WIyWlLk6GJQsqaUBKTNV-1" source="WIyWlLk6GJQsqaUBKTNV-3" target="0k58HP3hY6ir9fIUcR2I-3">
          <mxGeometry relative="1" as="geometry" />
        </mxCell>
        <mxCell id="WIyWlLk6GJQsqaUBKTNV-3" value="&lt;font style=&quot;font-size: 10px;&quot;&gt;输入：&lt;br&gt;（28x28x1灰度图）&lt;/font&gt;" style="rounded=1;whiteSpace=wrap;html=1;fontSize=12;glass=0;strokeWidth=1;shadow=0;" parent="WIyWlLk6GJQsqaUBKTNV-1" vertex="1">
          <mxGeometry x="140" y="80" width="110" height="40" as="geometry" />
        </mxCell>
        <mxCell id="0k58HP3hY6ir9fIUcR2I-3" value="&lt;font style=&quot;font-size: 10px;&quot;&gt;卷积层操作（3*3，16）+ BatchNorm + ReLU&lt;/font&gt;" style="rounded=1;whiteSpace=wrap;html=1;absoluteArcSize=1;arcSize=14;strokeWidth=2;dashed=1;" vertex="1" parent="WIyWlLk6GJQsqaUBKTNV-1">
          <mxGeometry x="97.5" y="140" width="195" height="30" as="geometry" />
        </mxCell>
        <mxCell id="0k58HP3hY6ir9fIUcR2I-5" value="&lt;h1 style=&quot;margin-top: 0px; font-size: 6px;&quot;&gt;&lt;font style=&quot;font-size: 6px;&quot;&gt;解释&lt;/font&gt;&lt;/h1&gt;&lt;p style=&quot;font-size: 6px;&quot; data-pm-slice=&quot;0 0 []&quot;&gt;&lt;font style=&quot;font-size: 6px;&quot;&gt;1. Conv2D(3x3, 16)：&lt;/font&gt;&lt;/p&gt;&lt;p style=&quot;font-size: 6px;&quot;&gt;&lt;font style=&quot;font-size: 6px;&quot;&gt;输入通道数为 1，输出通道数为 16。&lt;/font&gt;&lt;/p&gt;&lt;p style=&quot;font-size: 6px;&quot;&gt;&lt;font style=&quot;font-size: 6px;&quot;&gt;若使用 padding=1 和 stride=1，输出尺寸仍为 28*28*16&lt;/font&gt;&lt;/p&gt;&lt;p style=&quot;font-size: 6px;&quot;&gt;&lt;font style=&quot;font-size: 6px;&quot;&gt;2. BatchNorm：&lt;/font&gt;&lt;/p&gt;&lt;p style=&quot;font-size: 6px;&quot;&gt;&lt;font style=&quot;font-size: 6px;&quot;&gt;对 16 个通道的特征图进行标准化，不改变特征图的尺寸。&lt;/font&gt;&lt;/p&gt;&lt;p style=&quot;font-size: 6px;&quot;&gt;&lt;font style=&quot;font-size: 6px;&quot;&gt;3. ReLU：&lt;/font&gt;&lt;/p&gt;&lt;p style=&quot;font-size: 6px;&quot;&gt;&lt;font style=&quot;font-size: 6px;&quot;&gt;引入非线性激活函数，保持输出尺寸为 28*28*16&lt;/font&gt;&lt;/p&gt;" style="text;html=1;whiteSpace=wrap;overflow=hidden;rounded=0;fillColor=#A9C4EB;" vertex="1" parent="WIyWlLk6GJQsqaUBKTNV-1">
          <mxGeometry x="320" y="130" width="170" height="120" as="geometry" />
        </mxCell>
        <mxCell id="0k58HP3hY6ir9fIUcR2I-12" value="&lt;font style=&quot;font-size: 10px;&quot;&gt;Conv2D(3x3,32)&lt;br&gt;BatchNorm+ReLU&lt;br&gt;Conv2D(3x3,32)&lt;br&gt;BatchNorm&lt;/font&gt;" style="shape=ext;double=1;rounded=0;whiteSpace=wrap;html=1;align=left;" vertex="1" parent="WIyWlLk6GJQsqaUBKTNV-1">
          <mxGeometry x="130" y="200" width="100" height="70" as="geometry" />
        </mxCell>
        <mxCell id="0k58HP3hY6ir9fIUcR2I-16" value="" style="endArrow=classic;html=1;rounded=0;entryX=0.372;entryY=1.055;entryDx=0;entryDy=0;entryPerimeter=0;" edge="1" parent="WIyWlLk6GJQsqaUBKTNV-1" target="0k58HP3hY6ir9fIUcR2I-22">
          <mxGeometry relative="1" as="geometry">
            <mxPoint x="160" y="270" as="sourcePoint" />
            <mxPoint x="160" y="307" as="targetPoint" />
          </mxGeometry>
        </mxCell>
        <mxCell id="0k58HP3hY6ir9fIUcR2I-18" value="+" style="edgeLabel;html=1;align=center;verticalAlign=middle;resizable=0;points=[];" vertex="1" connectable="0" parent="0k58HP3hY6ir9fIUcR2I-16">
          <mxGeometry x="0.027" y="4" relative="1" as="geometry">
            <mxPoint x="-4" y="-22" as="offset" />
          </mxGeometry>
        </mxCell>
        <mxCell id="0k58HP3hY6ir9fIUcR2I-19" value="&lt;span style=&quot;font-size: 8px;&quot;&gt;Shortcut&lt;/span&gt;" style="shape=delay;whiteSpace=wrap;html=1;" vertex="1" parent="WIyWlLk6GJQsqaUBKTNV-1">
          <mxGeometry x="180" y="280" width="40" height="13" as="geometry" />
        </mxCell>
        <mxCell id="0k58HP3hY6ir9fIUcR2I-22" value="&lt;font style=&quot;font-size: 9px;&quot;&gt;Add+ReLU&lt;/font&gt;" style="whiteSpace=wrap;html=1;dashed=1;" vertex="1" parent="WIyWlLk6GJQsqaUBKTNV-1">
          <mxGeometry x="130" y="310" width="80" height="10" as="geometry" />
        </mxCell>
        <mxCell id="0k58HP3hY6ir9fIUcR2I-30" value="" style="endArrow=classic;html=1;rounded=0;" edge="1" parent="WIyWlLk6GJQsqaUBKTNV-1">
          <mxGeometry relative="1" as="geometry">
            <mxPoint x="100" y="190" as="sourcePoint" />
            <mxPoint x="100" y="510" as="targetPoint" />
          </mxGeometry>
        </mxCell>
        <mxCell id="0k58HP3hY6ir9fIUcR2I-31" value="&lt;span style=&quot;text-align: left;&quot;&gt;残差块2&lt;/span&gt;" style="edgeLabel;resizable=0;html=1;;align=center;verticalAlign=middle;" connectable="0" vertex="1" parent="0k58HP3hY6ir9fIUcR2I-30">
          <mxGeometry relative="1" as="geometry" />
        </mxCell>
        <mxCell id="0k58HP3hY6ir9fIUcR2I-32" value="残差块1" style="edgeLabel;resizable=0;html=1;;align=left;verticalAlign=bottom;" connectable="0" vertex="1" parent="0k58HP3hY6ir9fIUcR2I-30">
          <mxGeometry x="-1" relative="1" as="geometry" />
        </mxCell>
        <mxCell id="0k58HP3hY6ir9fIUcR2I-33" value="&lt;span style=&quot;text-align: left;&quot;&gt;残差块3&lt;/span&gt;" style="edgeLabel;resizable=0;html=1;;align=right;verticalAlign=bottom;" connectable="0" vertex="1" parent="0k58HP3hY6ir9fIUcR2I-30">
          <mxGeometry x="1" relative="1" as="geometry">
            <mxPoint x="20" y="10" as="offset" />
          </mxGeometry>
        </mxCell>
        <mxCell id="0k58HP3hY6ir9fIUcR2I-34" value="&lt;font style=&quot;font-size: 10px;&quot;&gt;Conv2D(3x3,64)&lt;br&gt;BatchNorm+ReLU&lt;br&gt;Conv2D(3x3,64)&lt;br&gt;BatchNorm&lt;/font&gt;" style="shape=ext;double=1;rounded=0;whiteSpace=wrap;html=1;align=left;" vertex="1" parent="WIyWlLk6GJQsqaUBKTNV-1">
          <mxGeometry x="130" y="370" width="100" height="70" as="geometry" />
        </mxCell>
        <mxCell id="0k58HP3hY6ir9fIUcR2I-35" value="" style="endArrow=classic;html=1;rounded=0;entryX=0.372;entryY=1.055;entryDx=0;entryDy=0;entryPerimeter=0;" edge="1" parent="WIyWlLk6GJQsqaUBKTNV-1" target="0k58HP3hY6ir9fIUcR2I-38">
          <mxGeometry relative="1" as="geometry">
            <mxPoint x="160" y="440" as="sourcePoint" />
            <mxPoint x="160" y="477" as="targetPoint" />
          </mxGeometry>
        </mxCell>
        <mxCell id="0k58HP3hY6ir9fIUcR2I-36" value="+" style="edgeLabel;html=1;align=center;verticalAlign=middle;resizable=0;points=[];" vertex="1" connectable="0" parent="0k58HP3hY6ir9fIUcR2I-35">
          <mxGeometry x="0.027" y="4" relative="1" as="geometry">
            <mxPoint x="-4" y="-22" as="offset" />
          </mxGeometry>
        </mxCell>
        <mxCell id="0k58HP3hY6ir9fIUcR2I-37" value="&lt;font style=&quot;font-size: 8px;&quot;&gt;Shortcut&lt;/font&gt;" style="shape=delay;whiteSpace=wrap;html=1;" vertex="1" parent="WIyWlLk6GJQsqaUBKTNV-1">
          <mxGeometry x="180" y="450" width="40" height="13" as="geometry" />
        </mxCell>
        <mxCell id="0k58HP3hY6ir9fIUcR2I-38" value="&lt;font style=&quot;font-size: 9px;&quot;&gt;Add+ReLU&lt;/font&gt;" style="whiteSpace=wrap;html=1;dashed=1;" vertex="1" parent="WIyWlLk6GJQsqaUBKTNV-1">
          <mxGeometry x="130" y="480" width="80" height="10" as="geometry" />
        </mxCell>
        <mxCell id="0k58HP3hY6ir9fIUcR2I-39" value="" style="endArrow=classic;html=1;rounded=0;" edge="1" parent="WIyWlLk6GJQsqaUBKTNV-1">
          <mxGeometry width="50" height="50" relative="1" as="geometry">
            <mxPoint x="100" y="520" as="sourcePoint" />
            <mxPoint x="100" y="650" as="targetPoint" />
          </mxGeometry>
        </mxCell>
        <mxCell id="0k58HP3hY6ir9fIUcR2I-45" value="&lt;font style=&quot;font-size: 10px;&quot;&gt;Conv2D(3x3,128)&lt;br&gt;BatchNorm+ReLU&lt;br&gt;Conv2D(3x3,128)&lt;br&gt;BatchNorm&lt;/font&gt;" style="shape=ext;double=1;rounded=0;whiteSpace=wrap;html=1;align=left;" vertex="1" parent="WIyWlLk6GJQsqaUBKTNV-1">
          <mxGeometry x="130" y="524" width="100" height="70" as="geometry" />
        </mxCell>
        <mxCell id="0k58HP3hY6ir9fIUcR2I-46" value="" style="endArrow=classic;html=1;rounded=0;entryX=0.372;entryY=1.055;entryDx=0;entryDy=0;entryPerimeter=0;" edge="1" parent="WIyWlLk6GJQsqaUBKTNV-1" target="0k58HP3hY6ir9fIUcR2I-49">
          <mxGeometry relative="1" as="geometry">
            <mxPoint x="160" y="594" as="sourcePoint" />
            <mxPoint x="160" y="631" as="targetPoint" />
          </mxGeometry>
        </mxCell>
        <mxCell id="0k58HP3hY6ir9fIUcR2I-47" value="+" style="edgeLabel;html=1;align=center;verticalAlign=middle;resizable=0;points=[];" vertex="1" connectable="0" parent="0k58HP3hY6ir9fIUcR2I-46">
          <mxGeometry x="0.027" y="4" relative="1" as="geometry">
            <mxPoint x="-4" y="-22" as="offset" />
          </mxGeometry>
        </mxCell>
        <mxCell id="0k58HP3hY6ir9fIUcR2I-48" value="&lt;span style=&quot;font-size: 8px;&quot;&gt;Shortcut&lt;/span&gt;" style="shape=delay;whiteSpace=wrap;html=1;" vertex="1" parent="WIyWlLk6GJQsqaUBKTNV-1">
          <mxGeometry x="180" y="604" width="40" height="13" as="geometry" />
        </mxCell>
        <mxCell id="0k58HP3hY6ir9fIUcR2I-49" value="&lt;font style=&quot;font-size: 9px;&quot;&gt;Add+ReLU&lt;/font&gt;" style="whiteSpace=wrap;html=1;dashed=1;" vertex="1" parent="WIyWlLk6GJQsqaUBKTNV-1">
          <mxGeometry x="130" y="634" width="80" height="10" as="geometry" />
        </mxCell>
        <mxCell id="0k58HP3hY6ir9fIUcR2I-50" value="&lt;h1 style=&quot;margin-top: 0px; font-size: 6px;&quot;&gt;&lt;font style=&quot;font-size: 6px;&quot;&gt;解释&lt;/font&gt;&lt;/h1&gt;&lt;p style=&quot;font-size: 6px;&quot; data-pm-slice=&quot;0 0 []&quot;&gt;&lt;font style=&quot;font-size: 6px;&quot;&gt;1. Adaptive Avg Pool2D （池化操作），用于将输入的特征图尺寸自适应地缩放到指定的输出尺寸。&lt;/font&gt;&lt;/p&gt;&lt;p style=&quot;font-size: 6px;&quot; data-pm-slice=&quot;0 0 []&quot;&gt;&lt;font style=&quot;font-size: 6px;&quot;&gt;2. Flatten 是将多维张量转换为一维张量的操作&lt;/font&gt;&lt;/p&gt;&lt;p style=&quot;font-size: 6px;&quot; data-pm-slice=&quot;0 0 []&quot;&gt;&lt;span style=&quot;background-color: initial;&quot;&gt;3. Fully Connected Layer（全连接层）&lt;/span&gt;&lt;/p&gt;&lt;p style=&quot;font-size: 6px;&quot; data-pm-slice=&quot;0 0 []&quot;&gt;&lt;font style=&quot;font-size: 6px;&quot;&gt;用于将卷积网络提取的特征映射到实际的类别上&lt;br&gt;&lt;/font&gt;&lt;/p&gt;&lt;p style=&quot;font-size: 6px;&quot; data-pm-slice=&quot;0 0 []&quot;&gt;&lt;font style=&quot;font-size: 6px;&quot;&gt;3. Output: 10 Classes：是网络的最终输出层，指的是网络的输出有 10 个类别&lt;/font&gt;&lt;/p&gt;" style="text;html=1;whiteSpace=wrap;overflow=hidden;rounded=0;fillColor=#A9C4EB;" vertex="1" parent="WIyWlLk6GJQsqaUBKTNV-1">
          <mxGeometry x="320" y="634" width="170" height="120" as="geometry" />
        </mxCell>
        <mxCell id="0k58HP3hY6ir9fIUcR2I-56" value="" style="edgeStyle=orthogonalEdgeStyle;rounded=0;orthogonalLoop=1;jettySize=auto;html=1;" edge="1" parent="WIyWlLk6GJQsqaUBKTNV-1" source="0k58HP3hY6ir9fIUcR2I-52" target="0k58HP3hY6ir9fIUcR2I-55">
          <mxGeometry relative="1" as="geometry" />
        </mxCell>
        <mxCell id="0k58HP3hY6ir9fIUcR2I-52" value="&lt;font style=&quot;font-size: 10px;&quot;&gt;（Adaptive Avg Pool2D ）池化层操作&lt;/font&gt;" style="rounded=1;whiteSpace=wrap;html=1;absoluteArcSize=1;arcSize=14;strokeWidth=2;dashed=1;" vertex="1" parent="WIyWlLk6GJQsqaUBKTNV-1">
          <mxGeometry x="97.5" y="660" width="195" height="30" as="geometry" />
        </mxCell>
        <mxCell id="0k58HP3hY6ir9fIUcR2I-58" value="" style="edgeStyle=orthogonalEdgeStyle;rounded=0;orthogonalLoop=1;jettySize=auto;html=1;" edge="1" parent="WIyWlLk6GJQsqaUBKTNV-1" source="0k58HP3hY6ir9fIUcR2I-55" target="0k58HP3hY6ir9fIUcR2I-57">
          <mxGeometry relative="1" as="geometry" />
        </mxCell>
        <mxCell id="0k58HP3hY6ir9fIUcR2I-55" value="&lt;font style=&quot;font-size: 10px;&quot;&gt;Flatten&lt;/font&gt;" style="rounded=1;whiteSpace=wrap;html=1;absoluteArcSize=1;arcSize=14;strokeWidth=2;dashed=1;" vertex="1" parent="WIyWlLk6GJQsqaUBKTNV-1">
          <mxGeometry x="97.5" y="724" width="195" height="26" as="geometry" />
        </mxCell>
        <mxCell id="0k58HP3hY6ir9fIUcR2I-57" value="&lt;font style=&quot;font-size: 10px;&quot;&gt;Fully Connected Layer（全连接层）&lt;/font&gt;" style="rounded=1;whiteSpace=wrap;html=1;absoluteArcSize=1;arcSize=14;strokeWidth=2;dashed=1;" vertex="1" parent="WIyWlLk6GJQsqaUBKTNV-1">
          <mxGeometry x="97.5" y="780" width="195" height="30" as="geometry" />
        </mxCell>
        <mxCell id="0k58HP3hY6ir9fIUcR2I-60" value="&lt;span style=&quot;font-size: 10px;&quot;&gt;（Output: 10 Classes）输出&lt;/span&gt;" style="rounded=1;whiteSpace=wrap;html=1;absoluteArcSize=1;arcSize=14;strokeWidth=2;" vertex="1" parent="WIyWlLk6GJQsqaUBKTNV-1">
          <mxGeometry x="102.5" y="830" width="195" height="30" as="geometry" />
        </mxCell>
        <mxCell id="0k58HP3hY6ir9fIUcR2I-61" value="" style="rounded=1;whiteSpace=wrap;html=1;absoluteArcSize=1;arcSize=14;strokeWidth=2;" vertex="1" parent="WIyWlLk6GJQsqaUBKTNV-1">
          <mxGeometry x="30" y="50" width="610" height="840" as="geometry" />
        </mxCell>
        <mxCell id="0k58HP3hY6ir9fIUcR2I-62" value="Untitled Layer" parent="WIyWlLk6GJQsqaUBKTNV-0" />
        <mxCell id="0k58HP3hY6ir9fIUcR2I-63" value="" style="edgeStyle=orthogonalEdgeStyle;rounded=0;orthogonalLoop=1;jettySize=auto;html=1;" edge="1" parent="0k58HP3hY6ir9fIUcR2I-62" source="0k58HP3hY6ir9fIUcR2I-64" target="0k58HP3hY6ir9fIUcR2I-65">
          <mxGeometry relative="1" as="geometry" />
        </mxCell>
        <mxCell id="0k58HP3hY6ir9fIUcR2I-64" value="&lt;font style=&quot;font-size: 10px;&quot;&gt;输入：&lt;br&gt;（28x28x1灰度图）&lt;/font&gt;" style="rounded=1;whiteSpace=wrap;html=1;fontSize=12;glass=0;strokeWidth=2;shadow=0;" vertex="1" parent="0k58HP3hY6ir9fIUcR2I-62">
          <mxGeometry x="140" y="80" width="110" height="40" as="geometry" />
        </mxCell>
        <mxCell id="0k58HP3hY6ir9fIUcR2I-65" value="&lt;font style=&quot;font-size: 10px;&quot;&gt;卷积层操作（3*3，16）+ BatchNorm + ReLU&lt;/font&gt;" style="rounded=1;whiteSpace=wrap;html=1;absoluteArcSize=1;arcSize=14;strokeWidth=2;dashed=1;" vertex="1" parent="0k58HP3hY6ir9fIUcR2I-62">
          <mxGeometry x="97.5" y="140" width="195" height="30" as="geometry" />
        </mxCell>
        <mxCell id="0k58HP3hY6ir9fIUcR2I-66" value="&lt;h1 style=&quot;margin-top: 0px; font-size: 10px;&quot;&gt;&lt;font style=&quot;font-size: 10px;&quot;&gt;解释&lt;/font&gt;&lt;/h1&gt;&lt;p style=&quot;font-size: 10px;&quot; data-pm-slice=&quot;0 0 []&quot;&gt;&lt;font style=&quot;font-size: 10px;&quot;&gt;1. Conv2D(3x3, 16)：&lt;/font&gt;&lt;/p&gt;&lt;p style=&quot;font-size: 10px;&quot;&gt;&lt;font style=&quot;font-size: 10px;&quot;&gt;输入通道数为 1，输出通道数为 16。&lt;/font&gt;&lt;/p&gt;&lt;p style=&quot;font-size: 10px;&quot;&gt;&lt;font style=&quot;font-size: 10px;&quot;&gt;若使用 padding=1 和 stride=1，输出尺寸仍为 28*28*16&lt;/font&gt;&lt;/p&gt;&lt;p style=&quot;font-size: 10px;&quot;&gt;&lt;font style=&quot;font-size: 10px;&quot;&gt;2. BatchNorm：&lt;/font&gt;&lt;/p&gt;&lt;p style=&quot;font-size: 10px;&quot;&gt;&lt;font style=&quot;font-size: 10px;&quot;&gt;对 16 个通道的特征图进行标准化，不改变特征图的尺寸。&lt;/font&gt;&lt;/p&gt;&lt;p style=&quot;font-size: 10px;&quot;&gt;&lt;font style=&quot;font-size: 10px;&quot;&gt;3. ReLU：&lt;/font&gt;&lt;/p&gt;&lt;p style=&quot;font-size: 10px;&quot;&gt;&lt;font style=&quot;font-size: 10px;&quot;&gt;引入非线性激活函数，保持输出尺寸为 28*28*16&lt;/font&gt;&lt;/p&gt;" style="text;html=1;whiteSpace=wrap;overflow=hidden;rounded=0;fillColor=#A9C4EB;" vertex="1" parent="0k58HP3hY6ir9fIUcR2I-62">
          <mxGeometry x="314" y="180" width="276" height="180" as="geometry" />
        </mxCell>
        <mxCell id="0k58HP3hY6ir9fIUcR2I-67" value="&lt;font style=&quot;font-size: 10px;&quot;&gt;Conv2D(3x3,32)&lt;br&gt;BatchNorm+ReLU&lt;br&gt;Conv2D(3x3,32)&lt;br&gt;BatchNorm&lt;/font&gt;" style="shape=ext;double=1;rounded=0;whiteSpace=wrap;html=1;align=left;" vertex="1" parent="0k58HP3hY6ir9fIUcR2I-62">
          <mxGeometry x="130" y="200" width="100" height="70" as="geometry" />
        </mxCell>
        <mxCell id="0k58HP3hY6ir9fIUcR2I-68" value="" style="endArrow=classic;html=1;rounded=0;entryX=0.372;entryY=1.055;entryDx=0;entryDy=0;entryPerimeter=0;" edge="1" parent="0k58HP3hY6ir9fIUcR2I-62" target="0k58HP3hY6ir9fIUcR2I-71">
          <mxGeometry relative="1" as="geometry">
            <mxPoint x="160" y="270" as="sourcePoint" />
            <mxPoint x="160" y="307" as="targetPoint" />
          </mxGeometry>
        </mxCell>
        <mxCell id="0k58HP3hY6ir9fIUcR2I-69" value="+" style="edgeLabel;html=1;align=center;verticalAlign=middle;resizable=0;points=[];" vertex="1" connectable="0" parent="0k58HP3hY6ir9fIUcR2I-68">
          <mxGeometry x="0.027" y="4" relative="1" as="geometry">
            <mxPoint x="-4" y="-22" as="offset" />
          </mxGeometry>
        </mxCell>
        <mxCell id="0k58HP3hY6ir9fIUcR2I-70" value="&lt;span style=&quot;font-size: 8px;&quot;&gt;Shortcut&lt;/span&gt;" style="shape=delay;whiteSpace=wrap;html=1;" vertex="1" parent="0k58HP3hY6ir9fIUcR2I-62">
          <mxGeometry x="180" y="280" width="40" height="13" as="geometry" />
        </mxCell>
        <mxCell id="0k58HP3hY6ir9fIUcR2I-71" value="&lt;font style=&quot;font-size: 9px;&quot;&gt;Add+ReLU&lt;/font&gt;" style="whiteSpace=wrap;html=1;dashed=1;" vertex="1" parent="0k58HP3hY6ir9fIUcR2I-62">
          <mxGeometry x="130" y="310" width="80" height="10" as="geometry" />
        </mxCell>
        <mxCell id="0k58HP3hY6ir9fIUcR2I-72" value="" style="endArrow=classic;html=1;rounded=0;" edge="1" parent="0k58HP3hY6ir9fIUcR2I-62">
          <mxGeometry relative="1" as="geometry">
            <mxPoint x="100" y="190" as="sourcePoint" />
            <mxPoint x="100" y="510" as="targetPoint" />
          </mxGeometry>
        </mxCell>
        <mxCell id="0k58HP3hY6ir9fIUcR2I-73" value="&lt;span style=&quot;text-align: left;&quot;&gt;残差块2&lt;/span&gt;" style="edgeLabel;resizable=0;html=1;;align=center;verticalAlign=middle;" connectable="0" vertex="1" parent="0k58HP3hY6ir9fIUcR2I-72">
          <mxGeometry relative="1" as="geometry" />
        </mxCell>
        <mxCell id="0k58HP3hY6ir9fIUcR2I-74" value="残差块1" style="edgeLabel;resizable=0;html=1;;align=left;verticalAlign=bottom;" connectable="0" vertex="1" parent="0k58HP3hY6ir9fIUcR2I-72">
          <mxGeometry x="-1" relative="1" as="geometry" />
        </mxCell>
        <mxCell id="0k58HP3hY6ir9fIUcR2I-75" value="&lt;span style=&quot;text-align: left;&quot;&gt;残差块3&lt;/span&gt;" style="edgeLabel;resizable=0;html=1;;align=right;verticalAlign=bottom;" connectable="0" vertex="1" parent="0k58HP3hY6ir9fIUcR2I-72">
          <mxGeometry x="1" relative="1" as="geometry">
            <mxPoint x="20" y="10" as="offset" />
          </mxGeometry>
        </mxCell>
        <mxCell id="0k58HP3hY6ir9fIUcR2I-76" value="&lt;font style=&quot;font-size: 10px;&quot;&gt;Conv2D(3x3,64)&lt;br&gt;BatchNorm+ReLU&lt;br&gt;Conv2D(3x3,64)&lt;br&gt;BatchNorm&lt;/font&gt;" style="shape=ext;double=1;rounded=0;whiteSpace=wrap;html=1;align=left;" vertex="1" parent="0k58HP3hY6ir9fIUcR2I-62">
          <mxGeometry x="130" y="370" width="100" height="70" as="geometry" />
        </mxCell>
        <mxCell id="0k58HP3hY6ir9fIUcR2I-77" value="" style="endArrow=classic;html=1;rounded=0;entryX=0.372;entryY=1.055;entryDx=0;entryDy=0;entryPerimeter=0;" edge="1" parent="0k58HP3hY6ir9fIUcR2I-62" target="0k58HP3hY6ir9fIUcR2I-80">
          <mxGeometry relative="1" as="geometry">
            <mxPoint x="160" y="440" as="sourcePoint" />
            <mxPoint x="160" y="477" as="targetPoint" />
          </mxGeometry>
        </mxCell>
        <mxCell id="0k58HP3hY6ir9fIUcR2I-78" value="+" style="edgeLabel;html=1;align=center;verticalAlign=middle;resizable=0;points=[];" vertex="1" connectable="0" parent="0k58HP3hY6ir9fIUcR2I-77">
          <mxGeometry x="0.027" y="4" relative="1" as="geometry">
            <mxPoint x="-4" y="-22" as="offset" />
          </mxGeometry>
        </mxCell>
        <mxCell id="0k58HP3hY6ir9fIUcR2I-79" value="&lt;font style=&quot;font-size: 8px;&quot;&gt;Shortcut&lt;/font&gt;" style="shape=delay;whiteSpace=wrap;html=1;" vertex="1" parent="0k58HP3hY6ir9fIUcR2I-62">
          <mxGeometry x="180" y="450" width="40" height="13" as="geometry" />
        </mxCell>
        <mxCell id="0k58HP3hY6ir9fIUcR2I-80" value="&lt;font style=&quot;font-size: 9px;&quot;&gt;Add+ReLU&lt;/font&gt;" style="whiteSpace=wrap;html=1;dashed=1;" vertex="1" parent="0k58HP3hY6ir9fIUcR2I-62">
          <mxGeometry x="130" y="480" width="80" height="10" as="geometry" />
        </mxCell>
        <mxCell id="0k58HP3hY6ir9fIUcR2I-81" value="" style="endArrow=classic;html=1;rounded=0;" edge="1" parent="0k58HP3hY6ir9fIUcR2I-62">
          <mxGeometry width="50" height="50" relative="1" as="geometry">
            <mxPoint x="100" y="520" as="sourcePoint" />
            <mxPoint x="100" y="650" as="targetPoint" />
          </mxGeometry>
        </mxCell>
        <mxCell id="0k58HP3hY6ir9fIUcR2I-82" value="&lt;font style=&quot;font-size: 10px;&quot;&gt;Conv2D(3x3,128)&lt;br&gt;BatchNorm+ReLU&lt;br&gt;Conv2D(3x3,128)&lt;br&gt;BatchNorm&lt;/font&gt;" style="shape=ext;double=1;rounded=0;whiteSpace=wrap;html=1;align=left;" vertex="1" parent="0k58HP3hY6ir9fIUcR2I-62">
          <mxGeometry x="130" y="524" width="100" height="70" as="geometry" />
        </mxCell>
        <mxCell id="0k58HP3hY6ir9fIUcR2I-83" value="" style="endArrow=classic;html=1;rounded=0;entryX=0.372;entryY=1.055;entryDx=0;entryDy=0;entryPerimeter=0;" edge="1" parent="0k58HP3hY6ir9fIUcR2I-62" target="0k58HP3hY6ir9fIUcR2I-86">
          <mxGeometry relative="1" as="geometry">
            <mxPoint x="160" y="594" as="sourcePoint" />
            <mxPoint x="160" y="631" as="targetPoint" />
          </mxGeometry>
        </mxCell>
        <mxCell id="0k58HP3hY6ir9fIUcR2I-84" value="+" style="edgeLabel;html=1;align=center;verticalAlign=middle;resizable=0;points=[];" vertex="1" connectable="0" parent="0k58HP3hY6ir9fIUcR2I-83">
          <mxGeometry x="0.027" y="4" relative="1" as="geometry">
            <mxPoint x="-4" y="-22" as="offset" />
          </mxGeometry>
        </mxCell>
        <mxCell id="0k58HP3hY6ir9fIUcR2I-85" value="&lt;span style=&quot;font-size: 8px;&quot;&gt;Shortcut&lt;/span&gt;" style="shape=delay;whiteSpace=wrap;html=1;" vertex="1" parent="0k58HP3hY6ir9fIUcR2I-62">
          <mxGeometry x="180" y="604" width="40" height="13" as="geometry" />
        </mxCell>
        <mxCell id="0k58HP3hY6ir9fIUcR2I-86" value="&lt;font style=&quot;font-size: 9px;&quot;&gt;Add+ReLU&lt;/font&gt;" style="whiteSpace=wrap;html=1;dashed=1;" vertex="1" parent="0k58HP3hY6ir9fIUcR2I-62">
          <mxGeometry x="130" y="634" width="80" height="10" as="geometry" />
        </mxCell>
        <mxCell id="0k58HP3hY6ir9fIUcR2I-87" value="&lt;h1 style=&quot;margin-top: 0px; font-size: 10px;&quot;&gt;&lt;font style=&quot;font-size: 10px;&quot;&gt;解释&lt;/font&gt;&lt;/h1&gt;&lt;p style=&quot;font-size: 10px;&quot; data-pm-slice=&quot;0 0 []&quot;&gt;&lt;font style=&quot;font-size: 10px;&quot;&gt;1. Adaptive Avg Pool2D （池化操作），用于将输入的特征图尺寸自适应地缩放到指定的输出尺寸。&lt;/font&gt;&lt;/p&gt;&lt;p style=&quot;font-size: 10px;&quot; data-pm-slice=&quot;0 0 []&quot;&gt;&lt;font style=&quot;font-size: 10px;&quot;&gt;2. Flatten 是将多维张量转换为一维张量的操作&lt;/font&gt;&lt;/p&gt;&lt;p style=&quot;font-size: 10px;&quot; data-pm-slice=&quot;0 0 []&quot;&gt;&lt;span style=&quot;background-color: initial;&quot;&gt;&lt;font style=&quot;font-size: 10px;&quot;&gt;3. Fully Connected Layer（全连接层）&lt;/font&gt;&lt;/span&gt;&lt;/p&gt;&lt;p style=&quot;font-size: 10px;&quot; data-pm-slice=&quot;0 0 []&quot;&gt;&lt;font style=&quot;font-size: 10px;&quot;&gt;用于将卷积网络提取的特征映射到实际的类别上&lt;br&gt;&lt;/font&gt;&lt;/p&gt;&lt;p style=&quot;font-size: 10px;&quot; data-pm-slice=&quot;0 0 []&quot;&gt;&lt;font style=&quot;font-size: 10px;&quot;&gt;3. Output: 10 Classes：是网络的最终输出层，指的是网络的输出有 10 个类别&lt;/font&gt;&lt;/p&gt;" style="text;html=1;whiteSpace=wrap;overflow=hidden;rounded=0;fillColor=#A9C4EB;" vertex="1" parent="0k58HP3hY6ir9fIUcR2I-62">
          <mxGeometry x="320" y="640" width="280" height="160" as="geometry" />
        </mxCell>
        <mxCell id="0k58HP3hY6ir9fIUcR2I-88" value="" style="edgeStyle=orthogonalEdgeStyle;rounded=0;orthogonalLoop=1;jettySize=auto;html=1;" edge="1" parent="0k58HP3hY6ir9fIUcR2I-62" source="0k58HP3hY6ir9fIUcR2I-89" target="0k58HP3hY6ir9fIUcR2I-91">
          <mxGeometry relative="1" as="geometry" />
        </mxCell>
        <mxCell id="0k58HP3hY6ir9fIUcR2I-89" value="&lt;font style=&quot;font-size: 10px;&quot;&gt;（Adaptive Avg Pool2D ）池化层操作&lt;/font&gt;" style="rounded=1;whiteSpace=wrap;html=1;absoluteArcSize=1;arcSize=14;strokeWidth=2;dashed=1;" vertex="1" parent="0k58HP3hY6ir9fIUcR2I-62">
          <mxGeometry x="97.5" y="660" width="195" height="30" as="geometry" />
        </mxCell>
        <mxCell id="0k58HP3hY6ir9fIUcR2I-90" value="" style="edgeStyle=orthogonalEdgeStyle;rounded=0;orthogonalLoop=1;jettySize=auto;html=1;" edge="1" parent="0k58HP3hY6ir9fIUcR2I-62" source="0k58HP3hY6ir9fIUcR2I-91" target="0k58HP3hY6ir9fIUcR2I-92">
          <mxGeometry relative="1" as="geometry" />
        </mxCell>
        <mxCell id="0k58HP3hY6ir9fIUcR2I-91" value="&lt;font style=&quot;font-size: 10px;&quot;&gt;Flatten&lt;/font&gt;" style="rounded=1;whiteSpace=wrap;html=1;absoluteArcSize=1;arcSize=14;strokeWidth=2;dashed=1;" vertex="1" parent="0k58HP3hY6ir9fIUcR2I-62">
          <mxGeometry x="97.5" y="724" width="195" height="26" as="geometry" />
        </mxCell>
        <mxCell id="0k58HP3hY6ir9fIUcR2I-96" style="edgeStyle=orthogonalEdgeStyle;rounded=0;orthogonalLoop=1;jettySize=auto;html=1;exitX=0.5;exitY=1;exitDx=0;exitDy=0;entryX=0.5;entryY=0;entryDx=0;entryDy=0;" edge="1" parent="0k58HP3hY6ir9fIUcR2I-62" source="0k58HP3hY6ir9fIUcR2I-92" target="0k58HP3hY6ir9fIUcR2I-93">
          <mxGeometry relative="1" as="geometry" />
        </mxCell>
        <mxCell id="0k58HP3hY6ir9fIUcR2I-92" value="&lt;font style=&quot;font-size: 10px;&quot;&gt;Fully Connected Layer（全连接层）&lt;/font&gt;" style="rounded=1;whiteSpace=wrap;html=1;absoluteArcSize=1;arcSize=14;strokeWidth=2;dashed=1;" vertex="1" parent="0k58HP3hY6ir9fIUcR2I-62">
          <mxGeometry x="97.5" y="780" width="195" height="30" as="geometry" />
        </mxCell>
        <mxCell id="0k58HP3hY6ir9fIUcR2I-93" value="&lt;span style=&quot;font-size: 10px;&quot;&gt;（Output: 10 Classes）输出&lt;/span&gt;" style="rounded=1;whiteSpace=wrap;html=1;absoluteArcSize=1;arcSize=14;strokeWidth=2;" vertex="1" parent="0k58HP3hY6ir9fIUcR2I-62">
          <mxGeometry x="100" y="830" width="195" height="30" as="geometry" />
        </mxCell>
      </root>
    </mxGraphModel>
  </diagram>
</mxfile>
